{"title":"Legion.2010.SWESUB.DVDRip.XviD.AC3.(5.1).-Zen_Bud","uid":5672449,"size":1470243438,"categoryP":"video","categoryS":"movies","magnet":"?xt=urn:btih:a53064eeeeb53782ccf0533f58aaafa57ed3298e&amp;dn=Legion.2010.SWESUB.DVDRip.XviD.AC3.%285.1%29.-Zen_Bud&amp;tr=udp%3A%2F%2Ftracker.openbittorrent.com%3A80&amp;tr=udp%3A%2F%2Fopen.demonii.com%3A1337&amp;tr=udp%3A%2F%2Ftracker.coppersurfer.tk%3A6969&amp;tr=udp%3A%2F%2Fexodus.desync.com%3A6969","seeders":2,"leechers":0,"uploader":"Zen_Bud","files":1,"time":1278404551,"description":"General\nComplete name                    : Legion.avi\nFormat                           : AVI\nFile size                        : 1.37 GiB\nDuration                         : 1h 40mn\nOverall bit rate                 : 1 958 Kbps\n\nVideo\n\nFormat                           : MPEG-4 Visual\nCodec ID/Hint                    : XviD\nDuration                         : 1h 40mn\nBit rate                         : 1 499 Kbps\nWidth                            : 720 pixels\nHeight                           : 492 pixels\nDisplay aspect ratio             : 2.081\nStream size                      : 1.05 GiB (77%)\nWriting library                  : XviD 1.1.2 (UTC 2006-11-01)\n\nAudio\n\nFormat                           : AC-3\nDuration                         : 1h 40mn\nBit rate                         : 448 Kbps\nChannel(s)                       : 6 channels\nChannel positions                : Front: L C R, Side: L R, LFE\nSampling rate                    : 48.0 KHz\nStream size                      : 321 MiB (23%)\n\n\n","torrent":{"xt":"urn:btih:a53064eeeeb53782ccf0533f58aaafa57ed3298e","amp;dn":"Legion.2010.SWESUB.DVDRip.XviD.AC3.%285.1%29.-Zen_Bud","amp;tr":["udp%3A%2F%2Ftracker.openbittorrent.com%3A80","udp%3A%2F%2Fopen.demonii.com%3A1337","udp%3A%2F%2Ftracker.coppersurfer.tk%3A6969","udp%3A%2F%2Fexodus.desync.com%3A6969"],"infoHash":"a53064eeeeb53782ccf0533f58aaafa57ed3298e","infoHashBuffer":{"type":"Buffer","data":[165,48,100,238,238,181,55,130,204,240,83,63,88,170,175,165,126,211,41,142]},"announce":[],"urlList":[]}}